<svg id="Capa_1" enable-background="new 0 0 512 512" height="512" viewBox="0 0 512 512" width="512" xmlns="http://www.w3.org/2000/svg"><g><g clip-rule="evenodd" fill-rule="evenodd"><path d="m52.331 378.004h67.748c19.956 0 36.311 16.328 36.311 36.312v79.995c-.907 5.188-5.018 9.27-10.177 10.205h-120.018c-5.188-.935-9.269-5.017-10.177-10.205v-79.995c.001-19.984 16.329-36.312 36.313-36.312z" fill="#a5cdff"/><path d="m95.814 378.004h24.265c19.956 0 36.311 16.328 36.311 36.312v79.995c-.907 5.188-5.018 9.27-10.177 10.205h-24.265c5.159-.935 9.241-5.017 10.177-10.205v-79.995c.001-19.984-16.355-36.312-36.311-36.312z" fill="#8abfff"/><path d="m222.126 378.004h67.776c19.956 0 36.283 16.328 36.283 36.312v79.995c-.906 5.188-4.988 9.27-10.176 10.205h-120.019c-5.158-.935-9.24-5.017-10.176-10.205v-79.995c0-19.984 16.356-36.312 36.312-36.312z" fill="#ebd2ff"/><path d="m265.609 378.004h24.265c19.984 0 36.311 16.328 36.311 36.312v79.995c-.906 5.188-4.988 9.27-10.176 10.205h-24.265c5.188-.935 9.269-5.017 10.177-10.205v-79.995c.001-19.984-16.327-36.312-36.312-36.312z" fill="#d7bef0"/><path d="m391.949 378.004h67.748c19.956 0 36.312 16.328 36.312 36.312v79.995c-.907 5.188-5.018 9.27-10.177 10.205h-120.017c-5.188-.935-9.27-5.017-10.177-10.176v-80.023c0-19.985 16.327-36.313 36.311-36.313z" fill="#ccf49f"/><path d="m435.434 378.004h24.264c19.956 0 36.312 16.328 36.312 36.312v79.995c-.907 5.188-5.018 9.27-10.177 10.205h-24.293c5.188-.935 9.27-5.017 10.205-10.205v-79.995c0-19.984-16.356-36.312-36.311-36.312z" fill="#b3e59f"/><path d="m140.46 205.94h88.725l21.061 36.482c2.806 4.848 8.617 5.018 11.537 0l21.032-36.482h88.753l39.912 38.467c4.393 4.224 9.07 1.559 9.638-3.458l4.592-39.317c40.563-12.473 70.3-50.372 70.3-94.905 0-54.567-44.646-99.213-99.241-99.213h-281.538c-54.567 0-99.213 44.646-99.213 99.213 0 44.533 29.708 82.433 70.3 94.905l4.563 39.317c.652 5.584 5.839 7.115 9.638 3.458z" fill="#ecf4ff"/><path d="m256 145.022h-21.543c.028-23.102-22.564-32.145-22.564-59.754 0-24.35 19.758-44.108 44.107-44.108 24.378 0 44.107 19.758 44.107 44.108 0 27.61-22.564 36.652-22.564 59.754z" fill="#ffe5a0"/><path d="m277.543 145.022v15.563c0 7.2-5.896 13.096-13.096 13.096h-16.866c-7.229 0-13.124-5.896-13.124-13.096v-15.563z" fill="#477b9e"/><path d="m464.176 345.207c0 21.09-17.263 38.354-38.352 38.354-21.119 0-38.382-17.263-38.382-38.354v-41.131c0-11.792 9.666-21.458 21.487-21.458h33.788c11.792 0 21.458 9.667 21.458 21.458v41.131z" fill="#ffcbbe"/><path d="m124.699 345.065c0 21.175-17.319 38.495-38.494 38.495s-38.495-17.32-38.495-38.495c0-13.748 0-27.497 0-41.245 0-11.849 9.694-21.571 21.544-21.571h49.719c3.94 0 5.727 2.296 5.727 5.754-.001 19.021-.001 38.042-.001 57.062z" fill="#c68b87"/><path d="m387.442 304.076v25.229l26.249-12.841c3.543-1.729 6.973-1.899 10.545-.68l39.94 13.522v-25.229c0-11.792-9.666-21.458-21.458-21.458h-33.788c-11.822-.001-21.488 9.665-21.488 21.457z" fill="#ffe5a0"/><path d="m47.71 303.821v12.416h76.989v-28.233c0-3.458-1.786-5.754-5.727-5.754h-49.718c-11.85 0-21.544 9.722-21.544 21.571z" fill="#477b9e"/><path d="m294.494 345.065c0 21.175-17.319 38.495-38.494 38.495s-38.494-17.32-38.494-38.495v-41.245c0-11.849 9.694-21.571 21.543-21.571h33.902c11.849 0 21.543 9.723 21.543 21.571z" fill="#ffcbbe"/><path d="m217.506 303.821v14.967c10.856 4.054 19.928.652 25.143-2.325 4.054-2.296 4.706-2.75 8.73.766 18.482 16.186 43.115 7.2 43.115 7.2v-20.608c0-11.849-9.694-21.571-21.543-21.571h-33.902c-11.849 0-21.543 9.722-21.543 21.571z" fill="#c68b87"/><path d="m100.435 316.237v28.829c0 16.923-11.083 31.409-26.362 36.511 3.799 1.276 7.881 1.984 12.133 1.984 21.175 0 38.494-17.32 38.494-38.495v-28.829z" fill="#bd7d79"/><path d="m118.973 282.25h-24.292c3.968 0 5.754 2.296 5.754 5.754v28.233h24.265v-28.233c-.001-3.459-1.787-5.754-5.727-5.754z" fill="#365e7d"/><path d="m270.23 345.065c0 13.919-7.484 26.193-18.652 32.939-2.41 1.474-4.989 2.665-7.711 3.572 3.827 1.276 7.909 1.984 12.133 1.984 7.257 0 14.06-2.041 19.871-5.556 11.14-6.746 18.623-19.02 18.623-32.939v-20.636s-11.253 4.11-24.264 1.786z" fill="#f7beaf"/><path d="m248.686 282.25c11.849 0 21.544 9.723 21.544 21.571v22.395c13.011 2.324 24.264-1.786 24.264-1.786v-20.608c0-11.849-9.694-21.571-21.543-21.571h-24.265z" fill="#bd7d79"/><path d="m439.912 345.207c0 13.862-7.455 26.051-18.539 32.797-2.409 1.474-4.988 2.665-7.682 3.572 3.799 1.276 7.88 1.984 12.133 1.984 7.228 0 14.002-2.041 19.814-5.556 11.083-6.746 18.538-18.936 18.538-32.797v-15.902l-24.264-8.221z" fill="#f7beaf"/><path d="m442.718 282.618h-24.265c11.793 0 21.459 9.667 21.459 21.458v17.008l24.264 8.221v-25.229c0-11.792-9.666-21.458-21.458-21.458z" fill="#f2ce7e"/><path d="m372.504 181.675h-281.537c-21.118 0-40.762-6.69-56.891-18.057 12.585 17.886 30.926 31.465 52.242 38.013l4.563 39.317c.652 5.584 5.839 7.115 9.638 3.458l39.941-38.467h88.725l21.061 36.482c2.806 4.848 8.617 5.018 11.537 0l21.032-36.482h88.753l39.912 38.467c4.393 4.224 9.07 1.559 9.638-3.458l4.592-39.317c40.563-12.473 70.3-50.372 70.3-94.905 0-33.449-16.781-63.185-42.321-81.156 11.366 16.129 18.057 35.773 18.057 56.892-.001 54.566-44.646 99.213-99.242 99.213z" fill="#ddeafb"/><path d="m275.843 85.268c0 27.61-22.593 36.652-22.564 59.754h24.264c0-23.102 22.564-32.145 22.564-59.754 0-24.35-19.729-44.108-44.107-44.108-4.195 0-8.277.595-12.133 1.672 18.483 5.273 31.976 22.281 31.976 42.436z" fill="#f2ce7e"/></g><path d="m256 152.535h-14.031v8.05c0 1.531.623 2.919 1.644 3.94 1.02 1.021 2.438 1.672 3.969 1.672h16.866c1.531 0 2.92-.652 3.94-1.672 1.021-1.02 1.672-2.409 1.672-3.94v-8.05zm200.807 181.957-37.531-12.728-24.463 11.991v11.31c0 8.504 3.486 16.272 9.128 21.884 5.612 5.612 13.351 9.099 21.884 9.099 8.504 0 16.271-3.487 21.883-9.099 5.612-5.613 9.1-13.38 9.1-21.884v-10.573zm-61.995-17.377 20.239-9.892c1.814-1.049 4.025-1.333 6.151-.595l35.604 12.047v-14.854c0-3.855-1.588-7.37-4.139-9.921-2.523-2.551-6.038-4.139-9.893-4.139h-33.902c-3.855 0-7.371 1.587-9.922 4.139-2.551 2.551-4.139 6.066-4.139 9.921v13.294zm-339.619-8.39h61.994v-18.964h-47.933c-3.855 0-7.37 1.587-9.922 4.139-2.551 2.551-4.139 6.066-4.139 9.921zm61.995 15.024h-61.995v21.316c0 8.504 3.487 16.272 9.128 21.884 5.612 5.612 13.351 9.099 21.884 9.099 8.504 0 16.271-3.487 21.883-9.099 5.613-5.613 9.1-13.38 9.1-21.884zm169.823 10.006c-10.317 1.418-26.787 1.105-40.563-10.885-4.848 2.778-12.359 5.811-21.43 5.159v17.036c0 8.504 3.486 16.272 9.099 21.884 5.642 5.612 13.38 9.099 21.884 9.099 8.532 0 16.271-3.487 21.884-9.099 5.641-5.613 9.127-13.38 9.127-21.884v-11.31zm-61.993-20.75c6.321.822 12.643-1.361 17.433-5.471 3.118-2.721 7.823-2.381 10.545.737 10.97 12.643 26.221 11.877 34.016 10.403v-14.854c0-3.855-1.587-7.37-4.138-9.921-2.552-2.551-6.066-4.139-9.922-4.139h-33.902c-3.855 0-7.342 1.587-9.893 4.139-2.552 2.551-4.139 6.066-4.139 9.921zm-92.835 32.06c0 9.468-2.892 18.312-7.852 25.654 10.374.992 19.7 5.669 26.702 12.643 7.936 7.937 12.841 18.907 12.841 30.955v90.199c0 4.139-3.345 7.484-7.483 7.484-46.8 0-93.6 0-140.372 0-4.138 0-7.512-3.345-7.512-7.484v-28.12c0-4.139 3.374-7.483 7.512-7.483 4.139 0 7.483 3.345 7.483 7.483v20.608h14.429v-68.684c0-4.167 3.373-7.512 7.512-7.512s7.512 3.345 7.512 7.512v68.684h66.501v-68.684c0-4.167 3.345-7.512 7.512-7.512 4.139 0 7.483 3.345 7.483 7.512v68.684h14.429v-82.688c0-7.909-3.231-15.109-8.447-20.353-5.244-5.216-12.444-8.447-20.352-8.447h-12.02c-6.52 3.515-13.975 5.527-21.854 5.527-7.909 0-15.336-2.013-21.855-5.527h-12.021c-7.938 0-15.138 3.231-20.353 8.447-5.217 5.244-8.476 12.444-8.476 20.353v28.12c0 4.139-3.345 7.483-7.483 7.483s-7.512-3.345-7.512-7.483v-28.12c0-12.048 4.933-23.018 12.87-30.955 7.001-6.974 16.327-11.65 26.702-12.643-4.961-7.342-7.881-16.186-7.881-25.654v-28.829-12.416c0-8.022 3.26-15.278 8.532-20.522 5.272-5.273 12.529-8.533 20.523-8.533h55.445c4.139 0 7.483 3.345 7.483 7.484v33.987 28.83zm339.619 0c0 9.468-2.892 18.312-7.853 25.654 10.375.992 19.701 5.669 26.703 12.643 7.937 7.937 12.841 18.907 12.841 30.955v90.199c0 4.139-3.345 7.484-7.483 7.484-46.801 0-93.601 0-140.372 0-4.139 0-7.512-3.345-7.512-7.484v-28.12c0-4.139 3.373-7.483 7.512-7.483s7.483 3.345 7.483 7.483v20.608h14.429v-68.684c0-4.167 3.373-7.512 7.512-7.512s7.512 3.345 7.512 7.512v68.684h66.501v-68.684c0-4.167 3.345-7.512 7.512-7.512 4.139 0 7.483 3.345 7.483 7.512v68.684h14.429v-82.688c0-7.909-3.232-15.109-8.447-20.353-5.244-5.216-12.444-8.447-20.354-8.447h-12.019c-6.52 3.515-13.975 5.527-21.855 5.527-7.909 0-15.336-2.013-21.855-5.527h-12.02c-7.936 0-15.137 3.231-20.352 8.447-5.216 5.244-8.476 12.444-8.476 20.353v28.12c0 4.139-3.345 7.483-7.483 7.483s-7.512-3.345-7.512-7.483v-28.12c0-12.048 4.933-23.018 12.869-30.955 7.002-6.974 16.327-11.65 26.702-12.643-4.96-7.342-7.88-16.186-7.88-25.654v-41.245c0-8.022 3.26-15.278 8.532-20.522 5.272-5.273 12.529-8.533 20.523-8.533h33.902c7.993 0 15.25 3.26 20.523 8.533 5.244 5.244 8.504 12.529 8.504 20.522v41.246zm-169.796 0c0 9.468-2.919 18.312-7.852 25.654 10.347.992 19.701 5.669 26.674 12.643 7.938 7.937 12.869 18.907 12.869 30.955v90.199c0 4.139-3.345 7.484-7.512 7.484-46.771 0-93.571 0-140.371 0-4.139 0-7.483-3.345-7.483-7.484v-28.12c0-4.139 3.345-7.483 7.483-7.483 4.139 0 7.512 3.345 7.512 7.483v20.608h14.428v-68.684c0-4.167 3.346-7.512 7.484-7.512 4.166 0 7.512 3.345 7.512 7.512v68.684h66.529v-68.684c0-4.167 3.344-7.512 7.482-7.512s7.512 3.345 7.512 7.512v68.684h14.429v-82.688c0-7.909-3.26-15.109-8.475-20.353-5.216-5.216-12.416-8.447-20.324-8.447h-12.047c-6.52 3.515-13.947 5.527-21.855 5.527-7.881 0-15.336-2.013-21.826-5.527h-12.048c-7.909 0-15.108 3.231-20.324 8.447-5.244 5.244-8.476 12.444-8.476 20.353v28.12c0 4.139-3.373 7.483-7.512 7.483s-7.483-3.345-7.483-7.483v-28.12c0-12.048 4.903-23.018 12.841-30.955 7.002-6.974 16.327-11.65 26.702-12.643-4.961-7.342-7.852-16.186-7.852-25.654v-41.245c0-8.022 3.261-15.278 8.504-20.522 5.273-5.273 12.529-8.533 20.523-8.533h33.902c7.994 0 15.279 3.26 20.523 8.533 5.271 5.244 8.531 12.5 8.531 20.522zm-161.348-146.609h88.526c2.976 0 5.527 1.729 6.746 4.224 6.689 11.594 13.38 23.188 20.069 34.782 6.775-11.764 13.578-23.499 20.353-35.235 1.333-2.324 3.799-3.77 6.463-3.77h88.753c2.211 0 4.195.964 5.584 2.495l36.936 35.575 4.167-35.745c.368-3.203 2.693-5.698 5.642-6.435 18.821-5.869 35.121-17.689 46.629-33.223 11.282-15.223 17.973-34.073 17.973-54.398 0-25.229-10.318-48.133-26.93-64.772-16.639-16.64-39.571-26.958-64.8-26.958h-281.538c-25.229 0-48.132 10.318-64.771 26.958-16.64 16.639-26.958 39.572-26.958 64.772 0 20.325 6.69 39.175 17.973 54.398 11.593 15.647 28.034 27.524 47.026 33.364 3.175.964 4.933 3.515 5.301 6.689l4.11 35.349 37.36-35.972c1.446-1.389 3.43-2.098 5.386-2.098zm84.217 14.996h-81.439l-45.751 44.079c-1.162 1.247-2.778 2.098-4.621 2.296-4.11.482-7.823-2.466-8.277-6.576l-5.357-46.035c-20.098-7.229-37.474-20.325-49.975-37.191-13.152-17.773-20.948-39.686-20.948-63.299 0-29.367 12.019-56.041 31.352-75.373 19.331-19.334 46.005-31.353 75.372-31.353h281.537c29.367 0 56.041 12.019 75.401 31.352 19.332 19.332 31.323 46.007 31.323 75.373 0 23.613-7.796 45.525-20.948 63.299-12.501 16.866-29.849 29.962-49.946 37.191l-5.357 45.922c-.198 1.644-.879 3.232-2.069 4.45-2.863 2.977-7.598 3.061-10.573.198l-46.035-44.334h-81.439c-8.221 14.23-16.413 28.46-24.634 42.69-.651 1.105-1.587 2.041-2.749 2.721-3.601 2.069-8.164.822-10.205-2.749-8.221-14.23-16.441-28.431-24.662-42.661zm2.127-68.997c-.199-8.532-4.65-15.307-9.298-22.365-6.52-9.893-13.323-20.211-13.323-36.822 0-14.258 5.783-27.157 15.137-36.482 9.326-9.354 22.252-15.137 36.482-15.137 14.258 0 27.156 5.783 36.51 15.137 9.326 9.326 15.109 22.224 15.109 36.482 0 16.611-6.804 26.929-13.295 36.822-4.648 7.058-9.1 13.833-9.297 22.365l.027 16.13c0 5.669-2.324 10.828-6.065 14.542-3.714 3.742-8.873 6.066-14.542 6.066h-16.866c-5.669 0-10.828-2.325-14.57-6.066-3.741-3.713-6.038-8.873-6.038-14.542zm14.286-6.945h29.452c1.645-9.297 6.293-16.328 11.111-23.641 5.244-7.995 10.771-16.385 10.771-28.602 0-10.12-4.109-19.276-10.715-25.881-6.633-6.633-15.789-10.744-25.908-10.744-10.092 0-19.247 4.11-25.881 10.744-6.633 6.605-10.715 15.761-10.715 25.881 0 12.217 5.5 20.607 10.771 28.602 4.793 7.314 9.441 14.344 11.114 23.641z"/></g></svg>